<mxfile host="app.diagrams.net" modified="2022-05-03T16:26:24.323Z" agent="5.0 (Windows NT 10.0; Win64; x64) AppleWebKit/537.36 (KHTML, like Gecko) Chrome/100.0.4896.127 Safari/537.36" etag="Enwa44HEAj34unj_J3mD" version="17.4.6" type="github">
  <diagram id="7GHrprhFqHzB8DyBce1B" name="Page-1">
    <mxGraphModel dx="2249" dy="762" grid="1" gridSize="10" guides="1" tooltips="1" connect="1" arrows="1" fold="1" page="1" pageScale="1" pageWidth="827" pageHeight="1169" math="0" shadow="0">
      <root>
        <mxCell id="0" />
        <mxCell id="1" parent="0" />
        <mxCell id="359gsgX4msZ9JDES_Lrk-3" value="" style="edgeStyle=orthogonalEdgeStyle;rounded=0;orthogonalLoop=1;jettySize=auto;html=1;" edge="1" parent="1" source="359gsgX4msZ9JDES_Lrk-1" target="359gsgX4msZ9JDES_Lrk-2">
          <mxGeometry relative="1" as="geometry" />
        </mxCell>
        <mxCell id="359gsgX4msZ9JDES_Lrk-1" value="Delta" style="rounded=1;whiteSpace=wrap;html=1;" vertex="1" parent="1">
          <mxGeometry x="120" y="160" width="120" height="60" as="geometry" />
        </mxCell>
        <mxCell id="359gsgX4msZ9JDES_Lrk-5" value="" style="edgeStyle=orthogonalEdgeStyle;rounded=0;orthogonalLoop=1;jettySize=auto;html=1;" edge="1" parent="1" source="359gsgX4msZ9JDES_Lrk-2" target="359gsgX4msZ9JDES_Lrk-4">
          <mxGeometry relative="1" as="geometry" />
        </mxCell>
        <mxCell id="359gsgX4msZ9JDES_Lrk-2" value="Ledger Assignment" style="rounded=1;whiteSpace=wrap;html=1;" vertex="1" parent="1">
          <mxGeometry x="120" y="300" width="120" height="60" as="geometry" />
        </mxCell>
        <mxCell id="359gsgX4msZ9JDES_Lrk-7" value="Yes" style="edgeStyle=orthogonalEdgeStyle;rounded=0;orthogonalLoop=1;jettySize=auto;html=1;" edge="1" parent="1" source="359gsgX4msZ9JDES_Lrk-4" target="359gsgX4msZ9JDES_Lrk-6">
          <mxGeometry relative="1" as="geometry" />
        </mxCell>
        <mxCell id="359gsgX4msZ9JDES_Lrk-16" value="No" style="edgeStyle=orthogonalEdgeStyle;rounded=0;orthogonalLoop=1;jettySize=auto;html=1;" edge="1" parent="1" source="359gsgX4msZ9JDES_Lrk-4" target="359gsgX4msZ9JDES_Lrk-14">
          <mxGeometry relative="1" as="geometry" />
        </mxCell>
        <mxCell id="359gsgX4msZ9JDES_Lrk-4" value="Has AR?" style="rhombus;whiteSpace=wrap;html=1;rounded=1;" vertex="1" parent="1">
          <mxGeometry x="140" y="430" width="80" height="80" as="geometry" />
        </mxCell>
        <mxCell id="359gsgX4msZ9JDES_Lrk-10" value="" style="edgeStyle=orthogonalEdgeStyle;rounded=0;orthogonalLoop=1;jettySize=auto;html=1;" edge="1" parent="1" source="359gsgX4msZ9JDES_Lrk-6" target="359gsgX4msZ9JDES_Lrk-9">
          <mxGeometry relative="1" as="geometry" />
        </mxCell>
        <mxCell id="359gsgX4msZ9JDES_Lrk-6" value="Route to Request Editor" style="whiteSpace=wrap;html=1;rounded=1;" vertex="1" parent="1">
          <mxGeometry x="-90" y="440" width="120" height="60" as="geometry" />
        </mxCell>
        <mxCell id="359gsgX4msZ9JDES_Lrk-13" style="edgeStyle=orthogonalEdgeStyle;rounded=0;orthogonalLoop=1;jettySize=auto;html=1;entryX=0;entryY=0.5;entryDx=0;entryDy=0;" edge="1" parent="1" source="359gsgX4msZ9JDES_Lrk-9" target="359gsgX4msZ9JDES_Lrk-11">
          <mxGeometry relative="1" as="geometry">
            <Array as="points">
              <mxPoint x="-230" y="600" />
            </Array>
          </mxGeometry>
        </mxCell>
        <mxCell id="359gsgX4msZ9JDES_Lrk-34" style="edgeStyle=orthogonalEdgeStyle;rounded=0;orthogonalLoop=1;jettySize=auto;html=1;entryX=0;entryY=0.5;entryDx=0;entryDy=0;strokeWidth=3;exitX=0.5;exitY=0;exitDx=0;exitDy=0;fillColor=#f8cecc;strokeColor=#b85450;" edge="1" parent="1" source="359gsgX4msZ9JDES_Lrk-9" target="359gsgX4msZ9JDES_Lrk-21">
          <mxGeometry relative="1" as="geometry">
            <Array as="points">
              <mxPoint x="-230" y="410" />
              <mxPoint x="-500" y="410" />
              <mxPoint x="-500" y="1050" />
            </Array>
          </mxGeometry>
        </mxCell>
        <mxCell id="359gsgX4msZ9JDES_Lrk-9" value="Enrich" style="whiteSpace=wrap;html=1;rounded=1;" vertex="1" parent="1">
          <mxGeometry x="-290" y="440" width="120" height="60" as="geometry" />
        </mxCell>
        <mxCell id="359gsgX4msZ9JDES_Lrk-15" value="" style="edgeStyle=orthogonalEdgeStyle;rounded=0;orthogonalLoop=1;jettySize=auto;html=1;" edge="1" parent="1" source="359gsgX4msZ9JDES_Lrk-11" target="359gsgX4msZ9JDES_Lrk-14">
          <mxGeometry relative="1" as="geometry" />
        </mxCell>
        <mxCell id="359gsgX4msZ9JDES_Lrk-11" value="Route to processing" style="whiteSpace=wrap;html=1;rounded=1;" vertex="1" parent="1">
          <mxGeometry x="-90" y="570" width="120" height="60" as="geometry" />
        </mxCell>
        <mxCell id="359gsgX4msZ9JDES_Lrk-18" value="Yes" style="edgeStyle=orthogonalEdgeStyle;rounded=0;orthogonalLoop=1;jettySize=auto;html=1;" edge="1" parent="1" source="359gsgX4msZ9JDES_Lrk-14" target="359gsgX4msZ9JDES_Lrk-17">
          <mxGeometry relative="1" as="geometry">
            <Array as="points">
              <mxPoint x="180" y="750" />
            </Array>
          </mxGeometry>
        </mxCell>
        <mxCell id="359gsgX4msZ9JDES_Lrk-14" value="Needs ledger check?" style="rhombus;whiteSpace=wrap;html=1;rounded=1;" vertex="1" parent="1">
          <mxGeometry x="140" y="560" width="80" height="80" as="geometry" />
        </mxCell>
        <mxCell id="359gsgX4msZ9JDES_Lrk-20" value="" style="edgeStyle=orthogonalEdgeStyle;rounded=0;orthogonalLoop=1;jettySize=auto;html=1;" edge="1" parent="1" source="359gsgX4msZ9JDES_Lrk-17" target="359gsgX4msZ9JDES_Lrk-19">
          <mxGeometry relative="1" as="geometry" />
        </mxCell>
        <mxCell id="359gsgX4msZ9JDES_Lrk-17" value="Route to request editor" style="whiteSpace=wrap;html=1;rounded=1;" vertex="1" parent="1">
          <mxGeometry x="-90" y="720" width="120" height="60" as="geometry" />
        </mxCell>
        <mxCell id="359gsgX4msZ9JDES_Lrk-29" value="Yes" style="edgeStyle=orthogonalEdgeStyle;rounded=0;orthogonalLoop=1;jettySize=auto;html=1;" edge="1" parent="1" source="359gsgX4msZ9JDES_Lrk-19" target="359gsgX4msZ9JDES_Lrk-28">
          <mxGeometry relative="1" as="geometry" />
        </mxCell>
        <mxCell id="359gsgX4msZ9JDES_Lrk-19" value="Is correct?" style="rhombus;whiteSpace=wrap;html=1;rounded=1;" vertex="1" parent="1">
          <mxGeometry x="-270" y="710" width="80" height="80" as="geometry" />
        </mxCell>
        <mxCell id="359gsgX4msZ9JDES_Lrk-25" value="" style="edgeStyle=orthogonalEdgeStyle;rounded=0;orthogonalLoop=1;jettySize=auto;html=1;" edge="1" parent="1" source="359gsgX4msZ9JDES_Lrk-21" target="359gsgX4msZ9JDES_Lrk-24">
          <mxGeometry relative="1" as="geometry" />
        </mxCell>
        <mxCell id="359gsgX4msZ9JDES_Lrk-21" value="QC" style="whiteSpace=wrap;html=1;rounded=1;" vertex="1" parent="1">
          <mxGeometry x="-290" y="1020" width="120" height="60" as="geometry" />
        </mxCell>
        <mxCell id="359gsgX4msZ9JDES_Lrk-27" value="" style="edgeStyle=orthogonalEdgeStyle;rounded=0;orthogonalLoop=1;jettySize=auto;html=1;" edge="1" parent="1" source="359gsgX4msZ9JDES_Lrk-24" target="359gsgX4msZ9JDES_Lrk-26">
          <mxGeometry relative="1" as="geometry" />
        </mxCell>
        <mxCell id="359gsgX4msZ9JDES_Lrk-24" value="Route to processing" style="whiteSpace=wrap;html=1;rounded=1;" vertex="1" parent="1">
          <mxGeometry x="-90" y="1020" width="120" height="60" as="geometry" />
        </mxCell>
        <mxCell id="359gsgX4msZ9JDES_Lrk-26" value="Publish" style="whiteSpace=wrap;html=1;rounded=1;" vertex="1" parent="1">
          <mxGeometry x="110" y="1020" width="120" height="60" as="geometry" />
        </mxCell>
        <mxCell id="359gsgX4msZ9JDES_Lrk-31" value="Yes" style="edgeStyle=orthogonalEdgeStyle;rounded=0;orthogonalLoop=1;jettySize=auto;html=1;" edge="1" parent="1" source="359gsgX4msZ9JDES_Lrk-28" target="359gsgX4msZ9JDES_Lrk-30">
          <mxGeometry relative="1" as="geometry" />
        </mxCell>
        <mxCell id="359gsgX4msZ9JDES_Lrk-32" value="Yes" style="edgeStyle=orthogonalEdgeStyle;rounded=0;orthogonalLoop=1;jettySize=auto;html=1;" edge="1" parent="1" source="359gsgX4msZ9JDES_Lrk-28" target="359gsgX4msZ9JDES_Lrk-21">
          <mxGeometry relative="1" as="geometry" />
        </mxCell>
        <mxCell id="359gsgX4msZ9JDES_Lrk-28" value="Has AR?" style="rhombus;whiteSpace=wrap;html=1;rounded=1;" vertex="1" parent="1">
          <mxGeometry x="-270" y="870" width="80" height="80" as="geometry" />
        </mxCell>
        <mxCell id="359gsgX4msZ9JDES_Lrk-33" value="No" style="edgeStyle=orthogonalEdgeStyle;rounded=0;orthogonalLoop=1;jettySize=auto;html=1;entryX=0;entryY=0.5;entryDx=0;entryDy=0;fillColor=#f8cecc;strokeColor=#b85450;strokeWidth=3;" edge="1" parent="1" source="359gsgX4msZ9JDES_Lrk-30" target="359gsgX4msZ9JDES_Lrk-9">
          <mxGeometry relative="1" as="geometry">
            <Array as="points">
              <mxPoint x="-390" y="470" />
            </Array>
          </mxGeometry>
        </mxCell>
        <mxCell id="359gsgX4msZ9JDES_Lrk-35" value="Yes" style="edgeStyle=orthogonalEdgeStyle;rounded=0;orthogonalLoop=1;jettySize=auto;html=1;entryX=0;entryY=0.5;entryDx=0;entryDy=0;strokeWidth=1;exitX=0.5;exitY=1;exitDx=0;exitDy=0;" edge="1" parent="1" source="359gsgX4msZ9JDES_Lrk-30" target="359gsgX4msZ9JDES_Lrk-21">
          <mxGeometry relative="1" as="geometry" />
        </mxCell>
        <mxCell id="359gsgX4msZ9JDES_Lrk-30" value="Has debt data" style="rhombus;whiteSpace=wrap;html=1;rounded=1;" vertex="1" parent="1">
          <mxGeometry x="-430" y="870" width="80" height="80" as="geometry" />
        </mxCell>
      </root>
    </mxGraphModel>
  </diagram>
</mxfile>
